<svg xmlns="http://www.w3.org/2000/svg" xmlns:xlink="http://www.w3.org/1999/xlink" version="1.1" x="0px" y="0px" viewBox="0 0 100 125" style="enable-background:new 0 0 100 100;" xml:space="preserve"><path d="M89.1088257,27.5c-2.1723633-3.7706909-7.0447998-5.5862427-13.5155029-5.5862427  c-2.994873,0-6.3310547,0.3879395-9.8999634,1.1637573c-0.6672363-2.0792236-1.4121704-4.0033569-2.2344971-5.7879028  c1.0085449-0.9155273,1.505127-2.3275757,1.1793213-3.755127c-0.4190063-1.7845459-2.017334-2.994812-3.770813-2.994812  c-0.2947998,0-0.5895386,0.0309448-0.8843994,0.0930786c-0.1085815,0.0310059-0.2327881,0.0620728-0.3414307,0.1240845  C56.8485107,7.0947876,53.5897827,5,50.1450195,5C43.78302,5,38.1347046,12.1068115,34.5967407,23.0775146  c-3.5689697-0.7758179-6.9051514-1.1637573-9.9000244-1.1637573c-6.4706421,0-11.3430786,1.8155518-13.5154419,5.5862427  c-3.1810303,5.508606,0.1395874,13.9500122,7.8826904,22.5c-1.7844238,1.9552002-3.3206177,3.8948364-4.5930786,5.8034058  c-0.2792969-0.0775146-0.5896606-0.1085815-0.9000244-0.1085815c-2.1413574,0-3.8792725,1.737915-3.8792725,3.8792725  c0,1.1482544,0.496521,2.1879272,1.3034668,2.8861694C9.6295166,66.3086548,9.5984497,69.7689209,11.1812744,72.5  c2.1723633,3.7706909,7.0447998,5.5861816,13.5154419,5.5861816c2.994873,0,6.3310547-0.3879395,9.9000244-1.1638184  C38.1347046,87.8930664,43.78302,95,50.1450195,95c6.3620605,0,12.0103149-7.1069336,15.5483398-18.0776367  c1.3344116,0.2948608,2.6533813,0.5276489,3.9257812,0.7138062c0,0.015564,0.015564,0.0465088,0.015564,0.0620728  c0.4189453,1.7844849,2.0172119,3.0103149,3.7861938,3.0103149c0.2792969,0,0.5740967-0.0310669,0.8689575-0.1085815  c1.3655396-0.3103638,2.3895874-1.3034058,2.8085938-2.5448608c5.7258911-0.2637939,10.008667-2.0792847,12.010376-5.5551147  c3.1809692-5.508606-0.1396484-13.9500122-7.8826904-22.5C88.9691772,41.4500122,92.2897949,33.008606,89.1088257,27.5z   M75.5933228,24.241333c5.7723999,0,9.8689575,1.5672607,11.5137939,4.4224854  c2.4362183,4.236145-0.2327881,11.6534424-7.4327393,19.6602783c-3.0413818-3.1189575-6.6414185-6.2379761-10.7069092-9.2017212  c-0.5276489-4.9810181-1.4121704-9.6362305-2.5913696-13.7947998C69.6812744,24.6138306,72.784729,24.241333,75.5933228,24.241333z   M69.2467651,42.2103271C72.6605835,44.7862549,75.6243286,47.4085693,78.1226807,50  c-2.4983521,2.5913696-5.4620972,5.2137451-8.8759155,7.7896118C69.4484863,55.260376,69.5415649,52.6533813,69.5415649,50  C69.5415649,47.3464966,69.4484863,44.739624,69.2467651,42.2103271z M67.2139893,50  c0,3.3516846-0.1551514,6.5637817-0.4345093,9.6051636c-2.4827271,1.7689209-5.1982422,3.506897-8.0999756,5.1827393  c-2.8241577,1.6292725-5.6792603,3.0878906-8.5344849,4.3913574c-2.8552246-1.3034668-5.7103271-2.762085-8.5344849-4.3913574  c-2.8396606-1.6448364-5.5551758-3.3827515-8.0999756-5.2138062C33.2312012,56.5327148,33.0760498,53.3361206,33.0760498,50  c0-3.3362427,0.1551514-6.5327759,0.4345093-9.5742188c2.5447998-1.8309937,5.2603149-3.5689087,8.0999756-5.2137451  c2.8241577-1.6293335,5.6792603-3.0879517,8.5344849-4.3912964c2.8552246,1.3033447,5.7103271,2.7619629,8.5344849,4.3912964  c2.9017334,1.6759033,5.6172485,3.4138184,8.0999756,5.1828003C67.0588379,43.4361572,67.2139893,46.6481934,67.2139893,50z   M66.4381104,37.3378906c-2.0947876-1.4275513-4.2982788-2.8086548-6.5947876-4.1430664  c-2.2810059-1.3189697-4.5776367-2.5293579-6.8586426-3.6155396c3.8171997-1.5827026,7.5724487-2.8395996,11.1569214-3.739624  C65.1192017,29.2689819,65.9105225,33.1327515,66.4381104,37.3378906z M50.1450195,7.3275757  c2.5913696,0,5.2137451,1.6757812,7.6189575,4.7637939c-0.6672363,0.8845215-0.9465332,2.0327759-0.6828003,3.1965942  c0.4190063,1.7844238,2.00177,3.0103149,3.770752,3.0103149c0.1707153,0,0.3568726-0.0155029,0.5275879-0.0465698  c0.7603149,1.6292725,1.4586182,3.4138184,2.0948486,5.3534546c-4.2207031,1.0551758-8.7207642,2.6224365-13.3293457,4.6551514  c-4.6085815-2.0327148-9.1085815-3.5999756-13.3293457-4.6551514C40.1519165,13.3638306,45.2570801,7.3275757,50.1450195,7.3275757z   M36.1484375,25.8396606c3.5844727,0.9000244,7.3397217,2.1569214,11.1569214,3.739624  c-2.2810059,1.0861816-4.5776367,2.2965698-6.8585815,3.6155396c-2.2965698,1.3344116-4.500061,2.7155151-6.5948486,4.1430664  C34.3795776,33.1327515,35.1708374,29.2689819,36.1484375,25.8396606z M17.5899048,44.5844727  c-4.8569336-6.5482788-6.4707642-12.3361816-4.4069824-15.9206543c1.6448364-2.8552246,5.741394-4.4224854,11.5137939-4.4224854  c2.8085938,0,5.9120483,0.3724976,9.2172241,1.0862427c-1.1791992,4.1585693-2.0637207,8.8137817-2.5913696,13.7947998  c-4.0654907,2.9637451-7.6499634,6.0671997-10.6758423,9.1706543C19.529541,47.0671997,18.520874,45.8258667,17.5899048,44.5844727z   M31.027771,57.758606C27.7536621,55.260376,24.8053589,52.6533813,22.2294922,50  c2.5758667-2.6535034,5.5241699-5.260376,8.7982788-7.758606C30.8415527,44.755188,30.7484741,47.3620605,30.7484741,50  S30.8415527,55.244812,31.027771,57.758606z M24.6967163,75.758606c-5.7723999,0-9.8689575-1.5672607-11.5137939-4.4224243  c-1.1637573-2.0172119-1.1637573-4.74823-0.0620117-7.9138184c0.1551514,0.0155029,0.2947998,0.0310669,0.4499512,0.0310669  c2.1414185,0,3.8793335-1.737915,3.8793335-3.8793335c0-0.993103-0.3724365-1.8776245-0.9776001-2.5758057  c0.3414307-0.5276489,0.7138062-1.0552368,1.1173096-1.5827637c0.9309692-1.241394,1.9396362-2.4827271,3.0568237-3.7086792  c3.0258789,3.1034546,6.6103516,6.2069092,10.6758423,9.1707764c0.5276489,4.980957,1.4121704,9.6361084,2.5913696,13.7947388  C30.6087646,75.3861694,27.5053101,75.758606,24.6967163,75.758606z M33.8519287,62.6620483  c2.0947876,1.4275513,4.2982788,2.8085938,6.5948486,4.1430664c2.2809448,1.3190308,4.5775757,2.5292969,6.8585815,3.6155396  c-3.8171997,1.5827637-7.5724487,2.8396606-11.1569214,3.7396851  C35.1708374,70.7310181,34.3795776,66.8672485,33.8519287,62.6620483z M50.1450195,92.6724243  c-4.8879395,0-9.993103-6.0362549-13.3293457-16.2775879c4.2207642-1.0552368,8.7207642-2.6224365,13.3293457-4.6551514  c4.6085815,2.0327148,9.1086426,3.5999146,13.3293457,4.6551514C60.1381226,86.6361694,55.03302,92.6724243,50.1450195,92.6724243z   M64.1416016,74.1603394c-3.5844727-0.9000244-7.3397217-2.1569214-11.1569214-3.7396851  c2.2810059-1.0862427,4.5776367-2.2965088,6.8586426-3.6155396c2.2965088-1.3344727,4.5-2.7155151,6.5947876-4.1430664  C65.9105225,66.8672485,65.1192017,70.7310181,64.1416016,74.1603394z M87.1071167,71.3361816  c-1.4896851,2.5913696-5.0120239,4.1275635-9.9776001,4.3759155c-0.4810181-1.6604004-2.0172119-2.762146-3.7086182-2.762146  c-0.2792969,0-0.5741577,0.0310669-0.8689575,0.0931396c-1.2724609,0.2947998-2.2344971,1.1637573-2.7000122,2.2810669  c-1.1328125-0.1707764-2.2966309-0.3879395-3.4758301-0.6517944c1.1791992-4.1586304,2.0637207-8.8137817,2.5913696-13.7947388  c4.0654907-2.9638672,7.6655273-6.0828247,10.7069092-9.2018433C86.8743286,59.6827393,89.543335,67.0999146,87.1071167,71.3361816z   M56.3519287,50c0,3.4292603-2.7775879,6.2069092-6.2069092,6.2069092S43.9381104,53.4292603,43.9381104,50  c0-3.4293213,2.7775879-6.2069092,6.2069092-6.2069092S56.3519287,46.5706787,56.3519287,50z"/><text x="0" y="115" fill="#000000" font-size="5px" font-weight="bold" font-family="'Helvetica Neue', Helvetica, Arial-Unicode, Arial, Sans-serif">Created by huijae Jang</text><text x="0" y="120" fill="#000000" font-size="5px" font-weight="bold" font-family="'Helvetica Neue', Helvetica, Arial-Unicode, Arial, Sans-serif">from the Noun Project</text></svg>